<svg width="739" height="169" viewBox="0 0 739 169" fill="none" xmlns="http://www.w3.org/2000/svg">
<path d="M8.50586 106L10.0928 82.1328L11.8701 37.5088L12.0605 27.7969C12.1029 25.3424 12.124 22.5283 12.124 19.3545C21.6878 19.3968 31.4844 19.418 41.5137 19.418L61.7627 19.3545H68.2373C67.9411 22.2744 67.7507 25.2155 67.666 28.1777L62.0166 27.8604C60.6201 27.7757 58.208 27.7122 54.7803 27.6699C51.3949 27.6276 48.0306 27.6064 44.6875 27.6064C34.7005 27.6064 27.7393 27.6699 23.8037 27.7969L22.6611 57.5674C29.1781 57.6943 35.0179 57.7578 40.1807 57.7578C45.8089 57.7578 53.1934 57.6732 62.334 57.5039C62.0378 60.4661 61.8473 63.3861 61.7627 66.2637L39.9268 66.0732C35.6527 66.0732 29.707 66.1579 22.0898 66.3271L20.9473 97.6846L27.5488 97.748C39.5247 97.748 47.4593 97.7057 51.3525 97.6211C55.2881 97.5365 59.8796 97.346 65.127 97.0498C64.8307 100.181 64.6403 103.165 64.5557 106C54.3571 105.915 45.7454 105.873 38.7207 105.873L8.50586 106ZM127.969 96.3516C127.884 97.0286 127.651 98.2982 127.271 100.16C126.932 101.98 126.636 103.778 126.382 105.556C123.293 106.275 120.309 106.762 117.432 107.016C114.596 107.27 112.1 107.396 109.941 107.396C105.371 107.396 101.139 106.783 97.2461 105.556C93.3952 104.328 90.0309 102.318 87.1533 99.5254C84.2757 96.6901 82.1598 93.1989 80.8057 89.0518C79.4515 84.8623 78.7744 80.4613 78.7744 75.8486C78.7744 69.6279 79.8747 63.7246 82.0752 58.1387C84.2757 52.5527 87.7458 48.1729 92.4854 44.999C97.2249 41.8252 103.678 40.2383 111.846 40.2383C117.855 40.2383 123.716 41.0423 129.429 42.6504C129.683 46.2474 129.915 49.2096 130.127 51.5371C126.107 50.2676 122.827 49.4212 120.288 48.998C117.749 48.5326 115.4 48.2998 113.242 48.2998C109.518 48.2998 106.175 48.9769 103.213 50.3311C100.293 51.6852 97.7962 53.6107 95.7227 56.1074C93.6491 58.6042 92.1468 61.5664 91.2158 64.9941C90.3271 68.4219 89.8828 71.9131 89.8828 75.4678C89.8828 80.2497 90.6234 84.4391 92.1045 88.0361C93.5856 91.6331 96.167 94.4261 99.8486 96.415C103.573 98.3617 107.741 99.335 112.354 99.335C116.839 99.335 122.044 98.3405 127.969 96.3516ZM174.116 40.2383C178.56 40.2383 182.791 40.873 186.812 42.1426C190.832 43.4121 194.302 45.4222 197.222 48.1729C200.184 50.9235 202.427 54.3936 203.95 58.583C205.474 62.7725 206.235 67.1947 206.235 71.8496C206.235 76.8854 205.41 81.7096 203.76 86.3223C202.152 90.9349 199.867 94.8493 196.904 98.0654C193.984 101.282 190.387 103.651 186.113 105.175C181.882 106.656 177.332 107.396 172.466 107.396C167.938 107.396 163.664 106.719 159.644 105.365C155.623 104.011 152.132 101.895 149.17 99.0176C146.25 96.14 144.028 92.6276 142.505 88.4805C140.981 84.291 140.22 79.9111 140.22 75.3408C140.22 68.443 141.616 62.2435 144.409 56.7422C147.202 51.1986 151.307 47.0726 156.724 44.3643C162.14 41.6136 167.938 40.2383 174.116 40.2383ZM173.862 48.2998C169.546 48.2998 165.568 49.3789 161.929 51.5371C158.332 53.6953 155.666 56.9538 153.931 61.3125C152.196 65.6289 151.328 70.3473 151.328 75.4678C151.328 79.9535 152.048 83.9948 153.486 87.5918C154.925 91.1465 157.295 94.0241 160.596 96.2246C163.896 98.4251 167.874 99.5254 172.529 99.5254C175.703 99.5254 178.708 98.9964 181.543 97.9385C184.378 96.8382 186.854 95.0397 188.97 92.543C191.086 90.0462 192.651 86.9993 193.667 83.4023C194.683 79.763 195.19 75.9544 195.19 71.9766C195.19 68.2526 194.683 64.7614 193.667 61.5029C192.651 58.2445 191.086 55.6419 188.97 53.6953C186.896 51.7064 184.526 50.3099 181.86 49.5059C179.237 48.7018 176.571 48.2998 173.862 48.2998Z" transform="translate(209 20)" fill="#4C4E51"/>
<path d="M216.328 103.334C216.328 101.684 216.201 99.7793 215.947 97.6211C223.945 101.472 231.245 103.397 237.847 103.397C241.613 103.397 245.02 102.784 248.066 101.557C251.113 100.329 253.462 98.5098 255.112 96.0977C256.805 93.6432 257.651 90.8503 257.651 87.7188C257.651 86.153 257.419 84.6719 256.953 83.2754C256.53 81.8789 255.811 80.4401 254.795 78.959C253.779 77.4779 252.002 75.5947 249.463 73.3096C246.966 70.9821 242.798 67.3851 236.958 62.5186L231.943 58.3291C230.208 56.8057 228.537 55.2188 226.929 53.5684C225.321 51.918 223.988 50.3945 222.93 48.998C221.872 47.5592 221.068 46.2897 220.518 45.1895C220.01 44.0469 219.608 42.7985 219.312 41.4443C219.015 40.0902 218.867 38.6937 218.867 37.2549C218.867 33.8271 219.798 30.6322 221.66 27.6699C223.522 24.7077 226.294 22.359 229.976 20.624C233.657 18.889 238.333 18.0215 244.004 18.0215C247.939 18.0215 252.954 18.5928 259.048 19.7354C259.09 21.3434 259.281 23.1208 259.619 25.0674C255.726 23.8402 252.489 23.015 249.907 22.5918C247.326 22.1686 244.871 21.957 242.544 21.957C238.354 21.957 234.906 22.6553 232.197 24.0518C229.489 25.4059 227.394 27.2467 225.913 29.5742C224.432 31.8594 223.691 34.2715 223.691 36.8105C223.691 38.1647 223.882 39.4977 224.263 40.8096C224.644 42.0791 225.257 43.391 226.104 44.7451C226.992 46.057 228.156 47.5169 229.595 49.125C231.034 50.6908 232.896 52.4893 235.181 54.5205C237.508 56.5518 240.576 59.1543 244.385 62.3281C248.236 65.502 250.902 67.766 252.383 69.1201C253.906 70.432 255.345 71.8496 256.699 73.373C258.053 74.8965 259.154 76.4199 260 77.9434C260.846 79.4245 261.46 80.9691 261.841 82.5771C262.264 84.1852 262.476 85.8779 262.476 87.6553C262.476 91.6331 261.46 95.1243 259.429 98.1289C257.44 101.133 254.478 103.419 250.542 104.984C246.649 106.508 242.269 107.27 237.402 107.27C234.271 107.27 231.224 107.016 228.262 106.508C225.299 106.042 221.322 104.984 216.328 103.334ZM276.631 106L278.789 67.2158L279.36 48.998C279.445 45.7396 279.487 43.3698 279.487 41.8887C280.588 41.931 281.413 41.9521 281.963 41.9521C282.471 41.9521 283.275 41.931 284.375 41.8887L283.55 56.3613C284.481 54.3724 285.243 52.8701 285.835 51.8545C286.47 50.7965 287.316 49.6751 288.374 48.4902C289.432 47.3053 290.68 46.2051 292.119 45.1895C293.6 44.1315 295.356 43.264 297.388 42.5869C299.461 41.8675 301.577 41.3597 303.735 41.0635C305.894 40.7249 308.031 40.5557 310.146 40.5557C313.701 40.5557 317.15 40.9577 320.493 41.7617C323.836 42.5658 326.608 43.9622 328.809 45.9512C331.009 47.8978 332.511 50.1618 333.315 52.7432C334.162 55.2822 334.585 58.0117 334.585 60.9316C334.585 62.2435 334.521 64.1901 334.395 66.7715L333.062 95.6533L332.808 106C331.961 105.958 331.136 105.937 330.332 105.937C329.528 105.937 328.724 105.958 327.92 106C328.343 100.71 328.682 95.6533 328.936 90.8291L329.824 74.5791C330.163 68.57 330.332 64.2324 330.332 61.5664C330.332 58.7734 329.93 56.2767 329.126 54.0762C328.322 51.8757 326.925 50.056 324.937 48.6172C322.99 47.1361 320.662 46.0781 317.954 45.4434C315.246 44.7663 312.453 44.4277 309.575 44.4277C305.555 44.4277 302 44.9779 298.911 46.0781C295.991 47.1361 293.431 48.7018 291.23 50.7754C289.03 52.8066 287.231 55.388 285.835 58.5195C284.777 60.8047 283.973 63.9997 283.423 68.1045C282.915 71.6592 282.492 77.4779 282.153 85.5605C281.857 93.6009 281.709 100.414 281.709 106C280.609 105.958 279.762 105.937 279.17 105.937C278.577 105.937 277.731 105.958 276.631 106ZM354.707 48.6172C355.003 47.1784 355.236 45.528 355.405 43.666C359.722 42.4811 363.467 41.6771 366.641 41.2539C369.814 40.7884 373.031 40.5557 376.289 40.5557C380.055 40.5557 383.547 40.8942 386.763 41.5713C390.021 42.2061 392.666 43.3063 394.697 44.8721C396.771 46.3955 398.125 48.1517 398.76 50.1406C399.437 52.1296 399.775 54.1608 399.775 56.2344C399.775 58.3503 399.691 61.0374 399.521 64.2959C399.395 67.512 399.204 70.9821 398.95 74.7061C398.696 78.43 398.464 83.085 398.252 88.6709C398.04 94.2145 397.935 98.2135 397.935 100.668V106C396.834 105.958 395.946 105.937 395.269 105.937C394.549 105.937 393.66 105.958 392.603 106C393.195 99.5254 393.597 94.278 393.809 90.2578C394.062 86.2376 394.253 81.9212 394.38 77.3086C394.549 72.6536 394.761 68.3161 395.015 64.2959C393.703 65.3962 392.687 66.2214 391.968 66.7715C391.291 67.2793 390.529 67.7448 389.683 68.168C388.879 68.5911 387.884 69.0355 386.699 69.501C385.557 69.9242 384.499 70.305 383.525 70.6436C382.552 70.9398 380.182 71.5957 376.416 72.6113C372.692 73.627 370.026 74.3887 368.418 74.8965C364.779 76.0814 361.965 77.2028 359.976 78.2607C357.817 79.4033 356.019 80.6729 354.58 82.0693C353.311 83.2965 352.38 84.5872 351.787 85.9414C351.11 87.5495 350.771 89.2633 350.771 91.083C350.771 93.8337 351.597 96.2246 353.247 98.2559C354.897 100.287 356.971 101.726 359.468 102.572C362.007 103.376 365.054 103.778 368.608 103.778C370.386 103.778 372.1 103.694 373.75 103.524C375.4 103.313 376.945 103.059 378.384 102.763C379.865 102.424 381.981 101.811 384.731 100.922C384.351 102.53 384.033 104.138 383.779 105.746C380.352 106.423 377.559 106.846 375.4 107.016C373.285 107.227 371.274 107.333 369.37 107.333C365.815 107.333 362.536 107.058 359.531 106.508C356.527 105.958 354.009 104.879 351.978 103.271C349.946 101.662 348.444 99.8005 347.471 97.6846C346.497 95.5687 346.011 93.347 346.011 91.0195C346.011 89.2422 346.307 87.5283 346.899 85.8779C347.492 84.1852 348.402 82.5771 349.629 81.0537C350.645 79.7842 351.999 78.5993 353.691 77.499C355.68 76.1449 357.881 75.0023 360.293 74.0713C363.086 72.971 366.09 71.9554 369.307 71.0244C370.195 70.7705 373.687 69.8607 379.78 68.2949C382.531 67.5755 385.133 66.6868 387.588 65.6289C390.042 64.5286 391.947 63.0264 393.301 61.1221C394.655 59.1755 395.332 57.2077 395.332 55.2188C395.332 53.7799 395.015 52.4046 394.38 51.0928C393.745 49.7386 392.603 48.4691 390.952 47.2842C389.344 46.0993 387.334 45.2741 384.922 44.8086C382.51 44.3431 379.971 44.1104 377.305 44.1104C374.215 44.1104 371.317 44.3219 368.608 44.7451C365.9 45.126 363.615 45.5915 361.753 46.1416C359.891 46.6494 357.542 47.4746 354.707 48.6172ZM414.756 134.184L415.518 121.361L417.549 63.8516L417.993 44.5547C423.494 43.0736 428.298 42.0368 432.402 41.4443C436.549 40.8519 440.57 40.5557 444.463 40.5557C450.641 40.5557 455.973 41.6136 460.459 43.7295C464.987 45.8031 468.499 49.3789 470.996 54.457C473.493 59.5352 474.741 65.3115 474.741 71.7861C474.741 78.6416 473.408 84.9258 470.742 90.6387C468.118 96.3516 464.543 100.562 460.015 103.271C455.529 105.937 450.514 107.27 444.971 107.27C442.474 107.27 440.02 106.994 437.607 106.444C435.195 105.894 432.974 105.069 430.942 103.969C428.953 102.826 427.24 101.451 425.801 99.8428C424.404 98.1924 422.775 95.6322 420.913 92.1621L419.897 125.805V127.963C419.897 129.402 419.919 131.475 419.961 134.184C418.861 134.141 417.993 134.12 417.358 134.12C416.724 134.12 415.856 134.141 414.756 134.184ZM422.881 48.4902C422.542 52.0872 422.225 57.2288 421.929 63.915C421.675 70.6012 421.548 75.0234 421.548 77.1816C421.548 80.8633 421.929 84.291 422.69 87.4648C423.452 90.5964 424.976 93.474 427.261 96.0977C429.546 98.679 432.233 100.626 435.322 101.938C438.454 103.249 441.691 103.905 445.034 103.905C449.816 103.905 454.111 102.615 457.92 100.033C461.729 97.4518 464.67 93.6432 466.743 88.6074C468.859 83.5293 469.917 78.0068 469.917 72.04C469.917 66.0732 468.838 60.9105 466.68 56.5518C464.521 52.193 461.58 49.0404 457.856 47.0938C454.175 45.1048 449.985 44.1104 445.288 44.1104C438.221 44.1104 430.752 45.5703 422.881 48.4902Z" transform="translate(209 20)" fill="#BDBDBD"/>
<path d="M38.203 43.6237L63.0628 0.595681C60.4736 0.262972 57.869 0.0641468 55.2593 -4.54469e-07C44.7686 0.00273553 34.4018 2.26745 24.8657 6.63976C15.3295 11.0121 6.84823 17.3892 -1.5149e-07 25.3363L24.4031 67.5502L38.203 43.6237Z" transform="translate(32.2871 15.4572)" fill="#2BB673"/>
<path d="M39.5865 44.0605L14.131 -7.57448e-07C7.39333 9.19276 2.90012 19.8346 1.01073 31.0744C-0.878667 42.3142 -0.111825 53.8402 3.24993 64.7307V64.9888C3.42864 65.7235 3.60734 66.4979 3.76619 67.2722H52.9694L39.5865 44.0605Z" transform="translate(14.3623 45.5588)" fill="#D8EDDD"/>
<path d="M27.3021 52.0427H78.7689C77.6024 45.3882 77.0177 38.6447 77.0216 31.8888C77.0156 21.1097 78.4854 10.3804 81.3899 0C69.5189 7.7801 55.6329 11.9211 41.4396 11.9136C39.0171 11.9136 31.6307 10.8017 24.4031 9.92802L-1.21192e-06 52.0427H27.3021Z" transform="translate(77.0813 7.03809)" fill="#5EBF87"/>
<path d="M13.7999 23.8272L38.6994 66.9546C47.8898 54.4615 52.8437 39.3565 52.8369 23.8471C52.8265 16.3579 51.6817 8.9135 49.4415 1.76719C49.3025 1.17151 49.2033 0.575826 49.0643 1.21192e-06H-2.72681e-06L13.7999 23.8272Z" transform="translate(107.958 64.8386)" fill="#7FC99B"/>
<path d="M24.9193 23.8272L-9.08937e-07 67.0141C11.745 68.3411 23.6364 66.7729 34.6359 62.4464C45.6354 58.12 55.4086 51.1669 63.1025 42.1941L38.7193 0L24.9193 23.8272Z" transform="translate(79.7434 94.4048)" fill="#9ED4B0"/>
<path d="M62.5062 0H10.4238C10.7659 1.96821 10.9584 3.95952 10.9996 5.95681C11.0354 16.123 7.63477 26.003 1.34961 33.9935C0.416377 35.1849 -0.159448 35.9791 0.0391123 36.0983C0.237673 36.2174 1.01206 35.7409 2.38212 35.0658C4.22902 34.1024 6.13966 33.2665 8.10066 32.5639C12.9989 30.836 18.156 29.9563 23.3501 29.9628C30.7564 29.9628 40.8036 33.934 47.9914 36.9124C47.9914 36.9124 55.9339 40.0496 57.2245 40.407C59.7426 41.1713 62.3014 41.7945 64.8889 42.2735L89.3516 0H62.5062Z" transform="translate(8.79761 118.232)" fill="#BBE0C6"/>
</svg>
