<svg xmlns="http://www.w3.org/2000/svg" viewBox="0 0 656.06 154.73"><defs><style>.cls-1{fill:#2bb673;}.cls-2{fill:#c0e2ca;}.cls-3{fill:#57bd84;}.cls-4{fill:#75c594;}.cls-5{fill:#8fcea5;}.cls-6{fill:#a7d8b7;}.cls-7{font-size:119.05px;fill:#4c4e51;font-family:ErasITC-Medium, Eras Medium ITC;}.cls-8{fill:#9f9fa0;font-family:ErasITC-Light, Eras Light ITC;}</style></defs><title>Asset 3</title><g id="Layer_2" data-name="Layer 2"><g id="Layer_4" data-name="Layer 4"><path class="cls-1" d="M61.66,52h0L86.48,9a77.33,77.33,0,0,0-7.78-.59A72.89,72.89,0,0,0,23.48,33.69L47.85,75.91Z"/><path class="cls-2" d="M45.13,82.52l0,0-25.42-44A72.95,72.95,0,0,0,8.81,103.12l0,.25c.17.74.34,1.52.5,2.28H58.49Z"/><path class="cls-3" d="M95.51,52H147a116.22,116.22,0,0,1-1.75-20.14A117.89,117.89,0,0,1,149.56,0a72.72,72.72,0,0,1-39.91,11.85c-2.43,0-9.8-1.12-17-2.08L68.24,52Z"/><path class="cls-4" d="M112.88,81.57h0l24.89,43.09a72.68,72.68,0,0,0,14.13-43.08,74.32,74.32,0,0,0-3.4-22.13c-.14-.58-.24-1.18-.37-1.76h-49Z"/><path class="cls-5" d="M95.8,111.14h0L70.9,154.27a74.42,74.42,0,0,0,7.8.46A73,73,0,0,0,134,129.47l-24.37-42.2Z"/><path class="cls-6" d="M62.47,111.14H10.41a39.46,39.46,0,0,1,.58,6,45,45,0,0,1-9.65,28C.41,146.28-.17,147,0,147.18s1-.32,2.34-1a46.15,46.15,0,0,1,5.72-2.48,45.55,45.55,0,0,1,15.24-2.61c7.4,0,17.43,3.9,24.62,6.94,0,0,8,3.14,9.22,3.5a70.7,70.7,0,0,0,7.66,1.87l24.38-42.22Z"/><text class="cls-7" transform="translate(203.55 112.52)">Eco<tspan class="cls-8" x="193.63" y="0">Snap</tspan></text></g></g></svg>